# xmcd
# 
# Track frame offsets:
#     183
#     19730
#     33455
#     49000
#     64503
#     77340
#     112378
#     126295
#     138710
#     156890
#     167863
#     172835
#     178290
#     187120
#     193988
#     201253
#     211740
# 
# Disc length: 2846
# 
# Revision: 3
# Processed by: cddbd v1.5.2PL0 Copyright (c) Steve Scherf et al.
# Submitted via: fre:ac v1.0.17
# 
DISCID=fb0b1c11
DTITLE=Beatles - Abbey Road
DYEAR=1969
DGENRE=Rock
TTITLE0=Come Together
TTITLE1=Something
TTITLE2=Maxwell's Silver Hammer
TTITLE3=Oh! Darling
TTITLE4=Octopus's Garden
TTITLE5=I Want you (She's So Heavy)
TTITLE6=Here Comes the Sun
TTITLE7=Because
TTITLE8=You Never Give Me Your Money
TTITLE9=Sun King
TTITLE10=Mean Mr. Mustard
TTITLE11=Polythene Pam
TTITLE12=She Came In Through The Bathroom Window
TTITLE13=Golden Slumbers
TTITLE14=Carry That Weight
TTITLE15=The End
TTITLE16=Her Majesty
EXTD=
EXTT0=
EXTT1=
EXTT2=
EXTT3=
EXTT4=
EXTT5=
EXTT6=
EXTT7=
EXTT8=
EXTT9=
EXTT10=
EXTT11=
EXTT12=
EXTT13=
EXTT14=
EXTT15=
EXTT16=
PLAYORDER=
